<svg width="18" height="18" viewBox="0 0 18 18" fill="none" xmlns="http://www.w3.org/2000/svg">
<path d="M14.8696 4.01088V3.13043H13.9891V2.25H4.01088V3.13043H3.13043V4.01085H2.25V13.9891H3.13043V14.8695H4.01085V15.75H13.9891V14.8696H14.8695V13.9891H15.75V4.01088H14.8696ZM12.5217 10.7609H11.6413V11.6413H10.7609V12.5217H7.23912V11.6413H6.35869V10.7609H5.47827V7.23912H6.35869V6.35869H7.23912V5.47827H10.7609V6.35869H11.6413V7.23912H12.5217V10.7609H12.5217ZM13.4022 5.77173H12.2283V4.59784H13.4022V5.77173Z" fill="white"/>
<path d="M10.7608 7.23913V6.3587H7.23907V7.23913H6.35864V10.7609H7.23907V11.6413H10.7608V10.7609H11.6413V7.23913H10.7608Z" fill="white"/>
</svg>
