<svg width="16" height="16" viewBox="0 0 16 16" fill="none" xmlns="http://www.w3.org/2000/svg">
<g opacity="0.8" clip-path="url(#clip0_6_12602)">
<path d="M8.3761 2.82364H7.43506V3.76468H8.3761V2.82364Z" fill="white"/>
<path d="M9.31751 3.76453H8.37646V4.70557H9.31751V3.76453Z" fill="white"/>
<path d="M9.31751 4.70575H8.37646V5.64679H9.31751V4.70575Z" fill="white"/>
<path d="M0.940918 6.58831L0.940918 5.64726H-0.000124872L-0.000124872 6.58831H0.940918Z" fill="white"/>
<path d="M0.941406 5.64679L0.941406 4.70575H0.00036341L0.00036341 5.64679H0.941406Z" fill="white"/>
<path d="M1.88257 4.70557V3.76453H0.941526L0.941526 4.70557H1.88257Z" fill="white"/>
<path d="M1.88208 3.76468V2.82364H0.941038L0.941038 3.76468H1.88208Z" fill="white"/>
<path d="M2.82361 1.88242L3.76465 1.88242V0.941373L2.82361 0.941373V1.88242Z" fill="white"/>
<path d="M3.76452 1.88242L4.70557 1.88242V0.941373L3.76452 0.941373V1.88242Z" fill="white"/>
<path d="M2.82324 2.82346V1.88242H1.8822V2.82346H2.82324Z" fill="white"/>
<path d="M0.940918 7.52921L0.940918 6.58817H-0.000124216L-0.000124216 7.52921H0.940918Z" fill="white"/>
<path d="M12.2349 6.58768V5.64664H11.2938V6.58768H12.2349Z" fill="white"/>
<path d="M12.2354 5.64679V4.70575H11.2943V5.64679H12.2354Z" fill="white"/>
<path d="M11.2939 4.70557V3.76453H10.3529V4.70557H11.2939Z" fill="white"/>
<path d="M11.2939 3.76468V2.82364H10.3529V3.76468H11.2939Z" fill="white"/>
<path d="M9.41126 0.940903H8.47021V1.88195H9.41126V0.940903Z" fill="white"/>
<path d="M8.47034 0.940903H7.5293V1.88195H8.47034V0.940903Z" fill="white"/>
<path d="M10.3525 2.82346V1.88242H9.4115V2.82346H10.3525Z" fill="white"/>
<path d="M12.2349 7.52921V6.58817H11.2938V7.52921H12.2349Z" fill="white"/>
<path d="M5.64685 0.940903L6.58789 0.940903V-0.000139952L5.64685 -0.000139952V0.940903Z" fill="white"/>
<path d="M6.58825 0.940903L7.5293 0.940903V-0.000139952L6.58825 -0.000139952V0.940903Z" fill="white"/>
<path d="M4.70617 0.940903L5.64722 0.940903V-0.000139952L4.70617 -0.000139952V0.940903Z" fill="white"/>
<path d="M10.3528 7.52923V8.47028H11.2938V7.52923H10.3528Z" fill="white"/>
<path d="M10.3528 8.47076V9.4118H11.2938V8.47076H10.3528Z" fill="white"/>
<path d="M9.41126 10.3527H8.47021V11.2937H9.41126V10.3527Z" fill="white"/>
<path d="M8.47034 10.3527H7.5293V11.2937H8.47034V10.3527Z" fill="white"/>
<path d="M9.41187 9.41165V10.3527H10.3529V9.41165H9.41187Z" fill="white"/>
<path d="M11.2939 10.3529V11.2939H12.235V10.3529H11.2939Z" fill="white"/>
<path d="M10.3528 11.2938V12.2348H11.2938V11.2938H10.3528Z" fill="white"/>
<path d="M12.2349 11.2944V12.2354H13.1759V11.2944H12.2349Z" fill="white"/>
<path d="M11.2939 12.2353V13.1763H12.235V12.2353H11.2939Z" fill="white"/>
<path d="M13.176 12.235V13.176H14.1171V12.235H13.176Z" fill="white"/>
<path d="M12.2354 13.1765V14.1176H13.1764V13.1765H12.2354Z" fill="white"/>
<path d="M14.1174 13.1765V14.1176H15.0585V13.1765H14.1174Z" fill="white"/>
<path d="M13.1763 14.1174V15.0584H14.1173V14.1174H13.1763Z" fill="white"/>
<path d="M15.0586 14.118V15.0591H15.9996V14.118H15.0586Z" fill="white"/>
<path d="M15.0586 15.0589V16H15.9996V15.0589H15.0586Z" fill="white"/>
<path d="M14.1174 15.0589V16H15.0585V15.0589H14.1174Z" fill="white"/>
<path d="M10.3528 9.41165V10.3527H11.2938V9.41165H10.3528Z" fill="white"/>
<path d="M9.41187 10.3529V11.2939H10.3529V10.3529H9.41187Z" fill="white"/>
<path d="M0.940918 7.52986L0.940918 8.4709H1.88196V7.52986H0.940918Z" fill="white"/>
<path d="M0.940918 8.47076L0.940918 9.4118H1.88196V8.47076H0.940918Z" fill="white"/>
<path d="M2.82361 11.2939H3.76465V10.3529H2.82361V11.2939Z" fill="white"/>
<path d="M3.76452 11.2939H4.70557V10.3529H3.76452V11.2939Z" fill="white"/>
<path d="M1.88257 9.41134V10.3524H2.82361V9.41134H1.88257Z" fill="white"/>
<path d="M6.58826 11.2939H5.64722V12.235H6.58826V11.2939Z" fill="white"/>
<path d="M5.64661 11.2939H4.70557V12.235H5.64661V11.2939Z" fill="white"/>
<path d="M7.52918 11.2939H6.58813V12.235H7.52918V11.2939Z" fill="white"/>
</g>
<defs>
<clipPath id="clip0_6_12602">
<rect width="16" height="16" fill="white"/>
</clipPath>
</defs>
</svg>
