<svg width="18" height="18" viewBox="0 0 18 18" fill="none" xmlns="http://www.w3.org/2000/svg">
<path d="M11.2499 8.15627V7.3124H12V6.4688H12.7499V5.62493H13.5V4.78134H14.2501V3.93747H14.9999V3.09387H15.75V2.25H13.5V3.09387H12.7499V3.93747H12V4.78134H11.2499V5.62493H10.5001V6.4688H8.99988V5.62493H8.25003V4.78134H7.49993V3.93747H6.75008V3.09387H5.99999V2.25H2.25V3.93747H3.0001V4.78134H3.74995V5.62493H4.50004V6.4688H5.24989V7.3124H5.99999V8.15627H6.75008V9.00014H7.49993V9.84373H6.75008V10.6876H5.99999V11.5312H5.24989V12.3751H4.50004V13.2187H3.74995V14.0625H3.0001V14.9061H2.25V15.75H4.50004V14.9061H5.24989V14.0625H5.99999V13.2187H6.75008V12.3751H7.49993V11.5312H8.99988V12.3751H9.74997V13.2187H10.5001V14.0625H11.2499V14.9061H12V15.75H15.75V14.0625H14.9999V13.2187H14.2501V12.3751H13.5V11.5312H12.7499V10.6876H12V9.84373H11.2499V9.00014H10.5001V8.15627H11.2499ZM9.74997 9.00014V9.84373H10.5001V10.6876H11.2499V11.5312H12V12.3751H12.7499V13.2187H13.5V14.0625H14.2501V14.9061H12.7499V14.0625H12V13.2187H11.2499V12.3751H10.5001V11.5312H9.74997V10.6876H8.99988V9.84373H8.25003V8.15627H7.49993V7.3124H6.75008V6.4688H5.99999V5.62493H5.24989V4.78134H4.50004V3.93747H3.74995V3.09387H5.24989V3.93747H5.99999V4.78134H6.75008V5.62493H7.49993V6.4688H8.25003V7.3124H8.99988V8.15627H9.74997V9.00014Z" fill="white"/>
</svg>
